HIERARCHY
ROOT Hips
{
	OFFSET 0.000000 0.000000 0.000000
	CHANNELS 6 Xposition Yposition Zposition Zrotation Yrotation Xrotation 
	JOINT LHipJoint
	{
		OFFSET 0.000000 0.000000 0.000000
		CHANNELS 3 Zrotation Yrotation Xrotation
		JOINT LeftUpLeg
		{
			OFFSET 1.363060 -1.794630 0.839290
			CHANNELS 3 Zrotation Yrotation Xrotation
			JOINT LeftLeg
			{
				OFFSET 2.448110 -6.726130 0.000000
				CHANNELS 3 Zrotation Yrotation Xrotation
				JOINT LeftFoot
				{
					OFFSET 2.562200 -7.039590 0.000000
					CHANNELS 3 Zrotation Yrotation Xrotation
					JOINT LeftToeBase
					{
						OFFSET 0.157640 -0.433110 2.322550
						CHANNELS 3 Zrotation Yrotation Xrotation
						End Site
						{
							OFFSET 0.000000 0.000000 0.000000
						}
					}
				}
			}
		}
	}
	JOINT RHipJoint
	{
		OFFSET 0.000000 0.000000 0.000000
		CHANNELS 3 Zrotation Yrotation Xrotation
		JOINT RightUpLeg
		{
			OFFSET -1.305520 -1.794630 0.839290
			CHANNELS 3 Zrotation Yrotation Xrotation
			JOINT RightLeg
			{
				OFFSET -2.542530 -6.985550 0.000000
				CHANNELS 3 Zrotation Yrotation Xrotation
				JOINT RightFoot
				{
					OFFSET -2.568260 -7.056230 0.000000
					CHANNELS 3 Zrotation Yrotation Xrotation
					JOINT RightToeBase
					{
						OFFSET -0.164730 -0.452590 2.363150
						CHANNELS 3 Zrotation Yrotation Xrotation
						End Site
						{
							OFFSET 0.000000 0.000000 0.000000
						}
					}
				}
			}
		}
	}
	JOINT LowerBack
	{
		OFFSET 0.000000 0.000000 0.000000
		CHANNELS 3 Zrotation Yrotation Xrotation
		JOINT Spine
		{
			OFFSET 0.028270 2.035590 -0.193380
			CHANNELS 3 Zrotation Yrotation Xrotation
			JOINT Spine1
			{
				OFFSET 0.056720 2.048850 -0.042750
				CHANNELS 3 Zrotation Yrotation Xrotation
				JOINT Neck
				{
					OFFSET 0.000000 0.000000 0.000000
					CHANNELS 3 Zrotation Yrotation Xrotation
					JOINT Neck1
					{
						OFFSET -0.054170 1.746240 0.172020
						CHANNELS 3 Zrotation Yrotation Xrotation
						JOINT Head
						{
							OFFSET 0.104070 1.761360 -0.123970
							CHANNELS 3 Zrotation Yrotation Xrotation
							End Site
							{
								OFFSET 0.000000 0.000000 0.000000
							}
						}
					}
				}
				JOINT LeftShoulder
				{
					OFFSET 0.000000 0.000000 0.000000
					CHANNELS 3 Zrotation Yrotation Xrotation
					JOINT LeftArm
					{
						OFFSET 3.362410 1.200890 -0.311210
						CHANNELS 3 Zrotation Yrotation Xrotation
						JOINT LeftForeArm
						{
							OFFSET 4.983000 -0.000000 -0.000000
							CHANNELS 3 Zrotation Yrotation Xrotation
							JOINT LeftHand
							{
								OFFSET 3.483560 -0.000000 -0.000000
								CHANNELS 3 Zrotation Yrotation Xrotation
								JOINT LeftFingerBase
								{
									OFFSET 0.000000 0.000000 0.000000
									CHANNELS 3 Zrotation Yrotation Xrotation
									JOINT LeftHandIndex1
									{
										OFFSET 0.715260 -0.000000 -0.000000
										CHANNELS 3 Zrotation Yrotation Xrotation
										End Site
										{
											OFFSET 0.000000 0.000000 0.000000
										}
									}
								}
								JOINT LThumb
								{
									OFFSET 0.000000 0.000000 0.000000
									CHANNELS 3 Zrotation Yrotation Xrotation
									End Site
									{
										OFFSET 0.000000 0.000000 0.000000
									}
								}
							}
						}
					}
				}
				JOINT RightShoulder
				{
					OFFSET 0.000000 0.000000 0.000000
					CHANNELS 3 Zrotation Yrotation Xrotation
					JOINT RightArm
					{
						OFFSET -3.136600 1.374050 -0.404650
						CHANNELS 3 Zrotation Yrotation Xrotation
						JOINT RightForeArm
						{
							OFFSET -5.241900 -0.000000 -0.000000
							CHANNELS 3 Zrotation Yrotation Xrotation
							JOINT RightHand
							{
								OFFSET -3.444170 -0.000000 -0.000000
								CHANNELS 3 Zrotation Yrotation Xrotation
								JOINT RightFingerBase
								{
									OFFSET 0.000000 0.000000 0.000000
									CHANNELS 3 Zrotation Yrotation Xrotation
									JOINT RightHandIndex1
									{
										OFFSET -0.622530 -0.000000 -0.000000
										CHANNELS 3 Zrotation Yrotation Xrotation
										End Site
										{
											OFFSET 0.000000 0.000000 0.000000
										}
									}
								}
								JOINT RThumb
								{
									OFFSET 0.000000 0.000000 0.000000
									CHANNELS 3 Zrotation Yrotation Xrotation
									End Site
									{
										OFFSET 0.000000 0.000000 0.000000
									}
								}
							}
						}
					}
				}
			}
		}
	}
}
MOTION
Frames: 11
Frame Time: 0.008333
1.324998 17.558426 0.435063 -174.708011 -61.014214 -168.410407 -12.639773 4.576125 0.232535 -10.051754 34.454996 -19.707670 -3.597341 -0.820740 -3.196843 1.403232 11.479283 8.047756 3.084000 0.000000 -55.208599 8.636866 -2.165848 6.913321 1.414144 8.078441 -18.970786 3.667246 1.890534 -2.483300 1.869464 8.310312 14.414603 2.000599 0.000000 -74.502199 0.840054 -8.516903 -10.642214 -0.074437 -8.530063 -4.392856 -7.781034 -8.435300 -0.316123 20.352331 -13.737057 -4.721592 -2.159285 -0.207277 0.914086 0.000000 0.000000 0.000000 25.290501 -19.307817 4.028875 2.233096 -23.839438 -42.743787 -0.300338 -1.017196 -0.138437 17.680540 1.554443 0.181691 -0.463538 0.404359 -0.000000 0.000000 0.000000 0.000000 0.000000 0.000000 0.000000 15.591645 -16.155969 -3.445999 79.350366 35.728283 41.046269 -178.924934 55.891354 179.737273 -37.810105 30.942040 -11.662368 1.028629 -1.554349 -0.000000 0.000000 0.000000 0.000000 0.000000 0.000000 0.000000 
1.315652 17.554518 0.447397 -174.492271 -60.880460 -168.743383 -12.706496 4.597123 0.180753 -9.809602 34.759745 -19.179882 -3.595558 -0.850530 -3.844888 1.361118 11.206328 8.242418 3.034900 0.000000 -55.232100 8.606226 -2.169708 6.960440 1.361117 8.474127 -18.853908 3.645817 1.870649 -2.286489 1.852221 8.159726 14.294911 1.931800 -0.000000 -74.553400 1.264455 -8.475416 -10.611927 -0.000830 -8.510151 -4.350018 -7.776678 -8.410400 -0.028721 20.066833 -13.928930 -4.948896 -2.131404 -0.201501 0.849272 0.000000 0.000000 0.000000 25.360182 -18.665804 4.319814 0.810942 -24.560177 -39.519797 -1.043311 0.007434 -0.089637 10.332863 7.381087 0.665198 -0.337734 0.246975 -0.000000 0.000000 0.000000 0.000000 0.000000 0.000000 0.000000 15.284869 -16.417163 -3.575364 79.687821 35.482573 41.183061 -178.865539 55.923308 179.738132 -37.330338 30.728642 -11.422000 1.012330 -1.542549 -0.000000 0.000000 0.000000 0.000000 0.000000 0.000000 0.000000 
1.306871 17.549899 0.455701 -174.384731 -60.653234 -169.018354 -12.775579 4.621550 0.132693 -9.568113 35.092170 -18.629928 -3.593392 -0.877645 -4.395521 1.324757 10.997007 8.419089 2.999299 0.000000 -55.278100 8.568815 -2.192150 7.040956 1.273907 8.917807 -18.739535 3.619500 1.846738 -2.086632 1.834985 8.035402 14.144559 1.872101 0.000000 -74.610400 1.710968 -8.374454 -10.636688 0.073943 -8.437927 -4.310301 -7.777966 -8.331746 0.298355 19.647496 -14.150023 -5.162100 -2.126293 -0.197338 0.787509 0.000000 0.000000 0.000000 25.284868 -17.681289 4.527337 -0.892531 -25.599959 -36.527105 -1.671503 0.033095 -0.054338 3.413730 11.956961 0.374759 -0.217621 0.137537 -0.000000 0.000000 0.000000 0.000000 0.000000 0.000000 0.000000 14.852606 -16.684596 -3.707436 80.199117 35.147606 41.406996 -178.817785 55.966673 179.739163 -36.707777 30.570335 -11.160234 0.992756 -1.535006 -0.000000 0.000000 0.000000 0.000000 0.000000 0.000000 0.000000 
1.299183 17.544607 0.459971 -174.375422 -60.350663 -169.228043 -12.842961 4.645890 0.081644 -9.340400 35.454522 -18.105132 -3.595197 -0.898121 -4.798039 1.293628 10.836212 8.544415 2.967599 -0.000000 -55.330600 8.525872 -2.227479 7.144204 1.160970 9.393912 -18.633380 3.589170 1.820075 -1.884061 1.816718 7.923064 13.962489 1.815600 -0.000000 -74.665200 2.159150 -8.228737 -10.691473 0.151062 -8.325967 -4.271006 -7.772495 -8.212840 0.648271 19.132912 -14.400203 -5.375450 -2.136587 -0.194112 0.725163 0.000000 0.000000 0.000000 25.010846 -16.429140 4.673962 -2.699603 -26.812922 -33.868702 -2.144453 -0.842110 -0.031494 -2.423703 15.401946 -0.309663 -0.128769 0.073942 -0.000000 0.000000 0.000000 0.000000 0.000000 0.000000 0.000000 14.318929 -16.951972 -3.843540 80.848074 34.721214 41.687525 -178.781692 56.005172 179.740463 -35.966631 30.475272 -10.887668 0.970290 -1.531526 -0.000000 0.000000 0.000000 0.000000 0.000000 0.000000 0.000000 
1.293125 17.538801 0.461058 -174.440841 -59.985139 -169.390788 -12.907275 4.665051 0.026582 -9.103904 35.780051 -17.566796 -3.588953 -0.913653 -5.085461 1.277554 10.801163 8.615305 2.962200 0.000000 -55.366600 8.481015 -2.266649 7.249819 1.037406 9.882291 -18.520178 3.555302 1.790008 -1.679418 1.796906 7.821872 13.753114 1.762800 0.000000 -74.714500 2.598169 -8.050369 -10.740477 0.229713 -8.185876 -4.228724 -7.757456 -8.066017 1.000407 18.566927 -14.673627 -5.594033 -2.155353 -0.191331 0.661156 0.000000 0.000000 0.000000 24.530689 -15.006366 4.770436 -4.541971 -28.024318 -31.701484 -2.424091 -2.578026 -0.018455 -6.633354 18.027191 -1.039029 -0.076414 0.044385 0.000000 0.000000 0.000000 0.000000 0.000000 0.000000 0.000000 13.721817 -17.202985 -3.979171 81.576924 34.214298 41.983747 -178.758038 56.025356 179.742003 -35.145762 30.443625 -10.615405 0.945746 -1.531663 -0.000000 0.000000 0.000000 0.000000 0.000000 0.000000 0.000000 
1.289238 17.532556 0.459593 -174.565300 -59.575771 -169.515132 -12.964920 4.676210 -0.038046 -8.863829 36.064570 -17.035840 -3.575562 -0.921914 -5.236537 1.276804 10.887368 8.612307 2.978500 0.000000 -55.372400 8.436906 -2.303926 7.346264 0.912125 10.366027 -18.395764 3.518256 1.756869 -1.471399 1.774978 7.725080 13.517271 1.710900 -0.000000 -74.754000 3.012572 -7.852364 -10.759390 0.305135 -8.029823 -4.183547 -7.741713 -7.904238 1.328264 17.991416 -14.955006 -5.807991 -2.178820 -0.188969 0.598599 0.000000 0.000000 0.000000 23.848949 -13.529238 4.813324 -6.392024 -29.068232 -30.111683 -2.488847 -5.148123 -0.011908 -8.921528 20.070547 -1.569531 -0.052904 0.038313 -0.000000 0.000000 0.000000 0.000000 0.000000 0.000000 0.000000 13.099887 -17.412534 -4.103530 82.333015 33.623377 42.252528 -178.745753 56.015576 179.743598 -34.288177 30.469642 -10.353640 0.920161 -1.535078 -0.000000 0.000000 0.000000 0.000000 0.000000 0.000000 0.000000 
1.287508 17.525882 0.455594 -174.743305 -59.148453 -169.586088 -13.010874 4.678693 -0.113064 -8.655369 36.331728 -16.588158 -3.564099 -0.919885 -5.200165 1.286395 11.043116 8.507647 2.996500 0.000000 -55.343300 8.394627 -2.337795 7.434036 0.784574 10.832161 -18.282159 3.478503 1.722501 -1.256497 1.750510 7.620483 13.252231 1.655100 -0.000000 -74.776400 3.383668 -7.646737 -10.749539 0.370987 -7.868373 -4.140685 -7.737562 -7.738662 1.605138 17.440128 -15.233233 -5.999647 -2.206993 -0.187402 0.542888 0.000000 0.000000 0.000000 22.984393 -12.108298 4.782321 -8.260974 -29.814898 -29.015814 -2.338306 -8.525768 -0.009529 -9.192904 21.572740 -1.741542 -0.048360 0.050035 0.000000 0.000000 0.000000 0.000000 0.000000 0.000000 0.000000 12.491143 -17.565004 -4.201139 83.063752 32.948166 42.458310 -178.744587 55.973368 179.745061 -33.443009 30.537465 -10.111049 0.895068 -1.541254 -0.000000 0.000000 0.000000 0.000000 0.000000 0.000000 0.000000 
1.287931 17.518713 0.449861 -174.961316 -58.719400 -169.613025 -13.043783 4.671714 -0.195820 -8.480874 36.562150 -16.224617 -3.551869 -0.908726 -4.991360 1.308373 11.280891 8.299000 3.018200 -0.000000 -55.271601 8.355901 -2.365530 7.507919 0.659171 11.268418 -18.180036 3.436478 1.687235 -1.031401 1.723777 7.509502 12.957559 1.595701 0.000000 -74.781400 3.708971 -7.440229 -10.706343 0.422202 -7.707255 -4.107510 -7.759639 -7.575570 1.794993 16.927320 -15.486291 -6.135538 -2.242907 -0.187462 0.503760 0.000000 0.000000 0.000000 21.974918 -10.877059 4.650897 -10.213136 -30.088307 -28.190666 -1.996624 -12.748937 -0.010728 -7.538815 22.367735 -1.476239 -0.055494 0.078793 0.000000 0.000000 0.000000 0.000000 0.000000 0.000000 0.000000 11.912932 -17.636399 -4.252851 83.726167 32.183903 42.569316 -178.752347 55.903778 179.746007 -32.657591 30.632938 -9.896620 0.871644 -1.549779 -0.000000 0.000000 0.000000 0.000000 0.000000 0.000000 0.000000 
1.290101 17.510902 0.442984 -175.211626 -58.305726 -169.592276 -13.062945 4.655805 -0.278527 -8.353142 36.733084 -15.956177 -3.537136 -0.890900 -4.629361 1.344312 11.609673 7.987049 3.044900 0.000000 -55.149600 8.321240 -2.387144 7.568831 0.534113 11.665999 -18.103301 3.392519 1.651854 -0.790865 1.695275 7.394265 12.629700 1.533200 0.000000 -74.769200 3.989941 -7.235269 -10.640144 0.455210 -7.547682 -4.093012 -7.819711 -7.416483 1.869402 16.453020 -15.695694 -6.185520 -2.290128 -0.189935 0.489918 0.000000 0.000000 0.000000 20.830094 -9.919620 4.393266 -12.226965 -29.814359 -27.434003 -1.518360 -17.756031 -0.016861 -4.257437 22.101310 -0.813608 -0.069941 0.126817 0.000000 0.000000 0.000000 0.000000 0.000000 0.000000 0.000000 11.366904 -17.618758 -4.243703 84.294276 31.328898 42.569862 -178.764654 55.817348 179.746092 -31.974369 30.740629 -9.718035 0.850869 -1.560027 -0.000000 0.000000 0.000000 0.000000 0.000000 0.000000 0.000000 
1.294238 17.502239 0.435891 -175.484675 -57.917688 -169.545679 -13.068638 4.630621 -0.369491 -8.261946 36.876211 -15.768344 -3.523133 -0.866138 -4.123998 1.389838 11.992673 7.578926 3.064500 0.000000 -54.989000 8.292201 -2.402667 7.613239 0.411040 12.021027 -18.035139 3.346141 1.615381 -0.531908 1.665270 7.282558 12.265198 1.470400 0.000001 -74.744900 4.227462 -7.026953 -10.539018 0.467557 -7.383151 -4.098605 -7.922925 -7.254904 1.815869 16.013290 -15.846753 -6.133832 -2.350911 -0.195194 0.505607 0.000000 0.000000 0.000000 19.567670 -9.239028 3.997355 -14.236406 -29.088190 -26.735985 -0.982930 -23.339488 -0.030511 0.108722 20.442857 0.034384 -0.087936 0.195205 0.000000 0.000000 0.000000 0.000000 0.000000 0.000000 0.000000 10.852155 -17.517378 -4.168833 84.756025 30.394116 42.450965 -178.776212 55.727376 179.745036 -31.423595 30.847852 -9.580393 0.833234 -1.571180 -0.000000 0.000000 0.000000 0.000000 0.000000 0.000000 0.000000 
1.299157 17.492439 0.428832 -175.777545 -57.570467 -169.452806 -13.061830 4.597841 -0.451769 -8.232029 36.959405 -15.686509 -3.508518 -0.839301 -3.505110 1.446335 12.438186 7.082052 3.079100 -0.000000 -54.781600 8.266413 -2.416560 7.652362 0.282440 12.332698 -18.011868 3.298409 1.579519 -0.250531 1.634580 7.175322 11.861602 1.407100 -0.000000 -74.708600 4.432499 -6.809224 -10.437745 0.463170 -7.207208 -4.127012 -8.061147 -7.084217 1.658304 15.590326 -15.933586 -5.994070 -2.422140 -0.202717 0.546670 0.000000 0.000000 0.000000 18.197242 -8.745026 3.484763 -16.190891 -28.119180 -26.121633 -0.488242 -29.282165 -0.052970 4.765378 17.406768 0.732693 -0.104379 0.279056 0.000000 0.000000 0.000000 0.000000 0.000000 0.000000 0.000000 10.342673 -17.358154 -4.041021 85.120212 29.399833 42.230007 -178.776805 55.642308 179.742769 -31.026423 30.941732 -9.486090 0.819001 -1.582024 -0.000000 0.000000 0.000000 0.000000 0.000000 0.000000 0.000000 
